<mxfile host="Electron" modified="2023-10-02T20:44:14.704Z" agent="Mozilla/5.0 (Windows NT 10.0; Win64; x64) AppleWebKit/537.36 (KHTML, like Gecko) draw.io/21.7.5 Chrome/114.0.5735.289 Electron/25.8.1 Safari/537.36" etag="KoXXDBQTOAB1eOvIjf7D" version="21.7.5" type="device">
  <diagram name="Page-1" id="2YBvvXClWsGukQMizWep">
    <mxGraphModel dx="1900" dy="621" grid="1" gridSize="10" guides="1" tooltips="1" connect="1" arrows="1" fold="1" page="1" pageScale="1" pageWidth="850" pageHeight="1100" math="0" shadow="0">
      <root>
        <mxCell id="0" />
        <mxCell id="1" parent="0" />
        <mxCell id="LpA9F5_BL7Sh21Nrzfpq-49" value="" style="rounded=0;whiteSpace=wrap;html=1;dashed=1;dashPattern=1 2;align=right;spacing=-20;labelPosition=center;verticalLabelPosition=top;verticalAlign=bottom;spacingLeft=25;fontFamily=Roboto Slab;fontSource=https%3A%2F%2Ffonts.googleapis.com%2Fcss%3Ffamily%3DRoboto%2BSlab;fontStyle=0;strokeColor=#9673A6;fillColor=#e1d5e7;spacingTop=0;spacingRight=25;fontColor=#9673A6;connectable=0;allowArrows=0;" vertex="1" parent="1">
          <mxGeometry x="-40" y="470" width="840" height="140" as="geometry" />
        </mxCell>
        <mxCell id="LpA9F5_BL7Sh21Nrzfpq-48" value="" style="rounded=0;whiteSpace=wrap;html=1;dashed=1;dashPattern=1 2;spacing=-20;labelPosition=center;verticalLabelPosition=top;align=right;verticalAlign=bottom;spacingLeft=25;fontFamily=Roboto Slab;fontSource=https%3A%2F%2Ffonts.googleapis.com%2Fcss%3Ffamily%3DRoboto%2BSlab;fontStyle=0;strokeColor=#82b366;fillColor=#d5e8d4;spacingTop=0;spacingRight=25;fontColor=#82B366;connectable=0;allowArrows=0;" vertex="1" parent="1">
          <mxGeometry x="-40" y="250" width="840" height="220" as="geometry" />
        </mxCell>
        <mxCell id="LpA9F5_BL7Sh21Nrzfpq-47" value="" style="rounded=0;dashed=1;dashPattern=1 2;labelPosition=center;verticalLabelPosition=top;align=right;verticalAlign=bottom;spacingTop=0;spacing=-20;spacingLeft=25;fontFamily=Roboto Slab;fontSource=https%3A%2F%2Ffonts.googleapis.com%2Fcss%3Ffamily%3DRoboto%2BSlab;horizontal=1;fontStyle=0;labelBorderColor=none;labelBackgroundColor=none;fillColor=#f8cecc;strokeColor=#b85450;fontColor=#B85450;whiteSpace=wrap;html=1;spacingRight=25;connectable=0;allowArrows=0;" vertex="1" parent="1">
          <mxGeometry x="-40" y="42.5" width="840" height="207.5" as="geometry" />
        </mxCell>
        <mxCell id="LpA9F5_BL7Sh21Nrzfpq-3" value="" style="edgeStyle=orthogonalEdgeStyle;rounded=0;orthogonalLoop=1;jettySize=auto;html=1;" edge="1" parent="1" source="LpA9F5_BL7Sh21Nrzfpq-1" target="LpA9F5_BL7Sh21Nrzfpq-2">
          <mxGeometry relative="1" as="geometry" />
        </mxCell>
        <mxCell id="LpA9F5_BL7Sh21Nrzfpq-52" value="" style="edgeStyle=orthogonalEdgeStyle;rounded=0;orthogonalLoop=1;jettySize=auto;html=1;" edge="1" parent="1" source="LpA9F5_BL7Sh21Nrzfpq-1" target="LpA9F5_BL7Sh21Nrzfpq-51">
          <mxGeometry relative="1" as="geometry" />
        </mxCell>
        <mxCell id="LpA9F5_BL7Sh21Nrzfpq-1" value="Receber Pedido" style="rounded=0;whiteSpace=wrap;html=1;" vertex="1" parent="1">
          <mxGeometry x="20" y="160" width="120" height="60" as="geometry" />
        </mxCell>
        <mxCell id="LpA9F5_BL7Sh21Nrzfpq-5" value="" style="edgeStyle=orthogonalEdgeStyle;rounded=0;orthogonalLoop=1;jettySize=auto;html=1;" edge="1" parent="1" source="LpA9F5_BL7Sh21Nrzfpq-2" target="LpA9F5_BL7Sh21Nrzfpq-4">
          <mxGeometry relative="1" as="geometry" />
        </mxCell>
        <mxCell id="LpA9F5_BL7Sh21Nrzfpq-2" value="Validar Dados" style="rounded=0;whiteSpace=wrap;html=1;" vertex="1" parent="1">
          <mxGeometry x="220" y="160" width="120" height="60" as="geometry" />
        </mxCell>
        <mxCell id="LpA9F5_BL7Sh21Nrzfpq-7" value="" style="edgeStyle=orthogonalEdgeStyle;rounded=0;orthogonalLoop=1;jettySize=auto;html=1;entryX=0.25;entryY=1;entryDx=0;entryDy=0;" edge="1" parent="1" source="LpA9F5_BL7Sh21Nrzfpq-4" target="LpA9F5_BL7Sh21Nrzfpq-6">
          <mxGeometry relative="1" as="geometry">
            <Array as="points">
              <mxPoint x="480" y="100" />
              <mxPoint x="550" y="100" />
            </Array>
          </mxGeometry>
        </mxCell>
        <mxCell id="LpA9F5_BL7Sh21Nrzfpq-9" value="" style="edgeStyle=orthogonalEdgeStyle;rounded=0;orthogonalLoop=1;jettySize=auto;html=1;" edge="1" parent="1" source="LpA9F5_BL7Sh21Nrzfpq-4" target="LpA9F5_BL7Sh21Nrzfpq-8">
          <mxGeometry relative="1" as="geometry" />
        </mxCell>
        <mxCell id="LpA9F5_BL7Sh21Nrzfpq-4" value="Dados estão corretos?" style="rhombus;whiteSpace=wrap;html=1;rounded=0;" vertex="1" parent="1">
          <mxGeometry x="430" y="150" width="90" height="80" as="geometry" />
        </mxCell>
        <mxCell id="LpA9F5_BL7Sh21Nrzfpq-6" value="Rejeitar pedido e notificar cliente" style="whiteSpace=wrap;html=1;rounded=0;" vertex="1" parent="1">
          <mxGeometry x="520" y="60" width="120" height="60" as="geometry" />
        </mxCell>
        <mxCell id="LpA9F5_BL7Sh21Nrzfpq-13" value="" style="edgeStyle=orthogonalEdgeStyle;rounded=0;orthogonalLoop=1;jettySize=auto;html=1;" edge="1" parent="1" source="LpA9F5_BL7Sh21Nrzfpq-8" target="LpA9F5_BL7Sh21Nrzfpq-12">
          <mxGeometry relative="1" as="geometry">
            <Array as="points">
              <mxPoint x="660" y="290" />
              <mxPoint x="60" y="290" />
            </Array>
          </mxGeometry>
        </mxCell>
        <mxCell id="LpA9F5_BL7Sh21Nrzfpq-8" value="Aceitar Pedido" style="whiteSpace=wrap;html=1;rounded=0;" vertex="1" parent="1">
          <mxGeometry x="600" y="160" width="120" height="60" as="geometry" />
        </mxCell>
        <mxCell id="LpA9F5_BL7Sh21Nrzfpq-10" value="Não" style="text;html=1;align=center;verticalAlign=middle;resizable=0;points=[];autosize=1;strokeColor=none;fillColor=none;rotation=-90;" vertex="1" parent="1">
          <mxGeometry x="440" y="110" width="50" height="30" as="geometry" />
        </mxCell>
        <mxCell id="LpA9F5_BL7Sh21Nrzfpq-11" value="Sim" style="text;html=1;align=center;verticalAlign=middle;resizable=0;points=[];autosize=1;strokeColor=none;fillColor=none;" vertex="1" parent="1">
          <mxGeometry x="540" y="168" width="40" height="30" as="geometry" />
        </mxCell>
        <mxCell id="LpA9F5_BL7Sh21Nrzfpq-15" value="" style="edgeStyle=orthogonalEdgeStyle;rounded=0;orthogonalLoop=1;jettySize=auto;html=1;" edge="1" parent="1" source="LpA9F5_BL7Sh21Nrzfpq-12" target="LpA9F5_BL7Sh21Nrzfpq-14">
          <mxGeometry relative="1" as="geometry" />
        </mxCell>
        <mxCell id="LpA9F5_BL7Sh21Nrzfpq-12" value="Processar Pedido" style="whiteSpace=wrap;html=1;rounded=0;" vertex="1" parent="1">
          <mxGeometry x="10" y="380" width="120" height="60" as="geometry" />
        </mxCell>
        <mxCell id="LpA9F5_BL7Sh21Nrzfpq-17" value="" style="edgeStyle=orthogonalEdgeStyle;rounded=0;orthogonalLoop=1;jettySize=auto;html=1;" edge="1" parent="1" source="LpA9F5_BL7Sh21Nrzfpq-14" target="LpA9F5_BL7Sh21Nrzfpq-16">
          <mxGeometry relative="1" as="geometry" />
        </mxCell>
        <mxCell id="LpA9F5_BL7Sh21Nrzfpq-14" value="Cálculos (preço total, descontos, etc)" style="whiteSpace=wrap;html=1;rounded=0;" vertex="1" parent="1">
          <mxGeometry x="180" y="380" width="120" height="60" as="geometry" />
        </mxCell>
        <mxCell id="LpA9F5_BL7Sh21Nrzfpq-16" value="Verificar Estoque" style="whiteSpace=wrap;html=1;rounded=0;" vertex="1" parent="1">
          <mxGeometry x="380" y="380" width="120" height="60" as="geometry" />
        </mxCell>
        <mxCell id="LpA9F5_BL7Sh21Nrzfpq-18" value="" style="edgeStyle=orthogonalEdgeStyle;rounded=0;orthogonalLoop=1;jettySize=auto;html=1;" edge="1" parent="1" target="LpA9F5_BL7Sh21Nrzfpq-21">
          <mxGeometry relative="1" as="geometry">
            <mxPoint x="500" y="400" as="sourcePoint" />
          </mxGeometry>
        </mxCell>
        <mxCell id="LpA9F5_BL7Sh21Nrzfpq-36" value="" style="edgeStyle=orthogonalEdgeStyle;rounded=0;orthogonalLoop=1;jettySize=auto;html=1;" edge="1" parent="1" source="LpA9F5_BL7Sh21Nrzfpq-21" target="LpA9F5_BL7Sh21Nrzfpq-35">
          <mxGeometry relative="1" as="geometry" />
        </mxCell>
        <mxCell id="LpA9F5_BL7Sh21Nrzfpq-21" value="Está disponível?" style="rhombus;whiteSpace=wrap;html=1;rounded=0;" vertex="1" parent="1">
          <mxGeometry x="540" y="360" width="90" height="80" as="geometry" />
        </mxCell>
        <mxCell id="LpA9F5_BL7Sh21Nrzfpq-31" value="Avisar para área" style="whiteSpace=wrap;html=1;rounded=0;" vertex="1" parent="1">
          <mxGeometry x="620" y="320" width="100" height="40" as="geometry" />
        </mxCell>
        <mxCell id="LpA9F5_BL7Sh21Nrzfpq-33" value="Não" style="text;html=1;align=center;verticalAlign=middle;resizable=0;points=[];autosize=1;strokeColor=none;fillColor=none;rotation=0;" vertex="1" parent="1">
          <mxGeometry x="570" y="320" width="50" height="30" as="geometry" />
        </mxCell>
        <mxCell id="LpA9F5_BL7Sh21Nrzfpq-34" value="" style="endArrow=classic;html=1;rounded=0;entryX=0;entryY=0.75;entryDx=0;entryDy=0;" edge="1" parent="1" target="LpA9F5_BL7Sh21Nrzfpq-31">
          <mxGeometry width="50" height="50" relative="1" as="geometry">
            <mxPoint x="580" y="365" as="sourcePoint" />
            <mxPoint x="630" y="315" as="targetPoint" />
            <Array as="points">
              <mxPoint x="580" y="350" />
            </Array>
          </mxGeometry>
        </mxCell>
        <mxCell id="LpA9F5_BL7Sh21Nrzfpq-38" value="" style="edgeStyle=orthogonalEdgeStyle;rounded=0;orthogonalLoop=1;jettySize=auto;html=1;" edge="1" parent="1" source="LpA9F5_BL7Sh21Nrzfpq-35" target="LpA9F5_BL7Sh21Nrzfpq-37">
          <mxGeometry relative="1" as="geometry">
            <Array as="points">
              <mxPoint x="720" y="490" />
              <mxPoint x="70" y="490" />
            </Array>
          </mxGeometry>
        </mxCell>
        <mxCell id="LpA9F5_BL7Sh21Nrzfpq-35" value="Verificar Pagamento" style="whiteSpace=wrap;html=1;rounded=0;" vertex="1" parent="1">
          <mxGeometry x="660" y="377.5" width="120" height="45" as="geometry" />
        </mxCell>
        <mxCell id="LpA9F5_BL7Sh21Nrzfpq-40" value="" style="edgeStyle=orthogonalEdgeStyle;rounded=0;orthogonalLoop=1;jettySize=auto;html=1;" edge="1" parent="1" source="LpA9F5_BL7Sh21Nrzfpq-37" target="LpA9F5_BL7Sh21Nrzfpq-39">
          <mxGeometry relative="1" as="geometry" />
        </mxCell>
        <mxCell id="LpA9F5_BL7Sh21Nrzfpq-37" value="Atualizar Cliente" style="whiteSpace=wrap;html=1;rounded=0;" vertex="1" parent="1">
          <mxGeometry x="10" y="530" width="120" height="60" as="geometry" />
        </mxCell>
        <mxCell id="LpA9F5_BL7Sh21Nrzfpq-42" value="" style="edgeStyle=orthogonalEdgeStyle;rounded=0;orthogonalLoop=1;jettySize=auto;html=1;" edge="1" parent="1" source="LpA9F5_BL7Sh21Nrzfpq-39" target="LpA9F5_BL7Sh21Nrzfpq-41">
          <mxGeometry relative="1" as="geometry" />
        </mxCell>
        <mxCell id="LpA9F5_BL7Sh21Nrzfpq-39" value="Preparar Envio" style="whiteSpace=wrap;html=1;rounded=0;" vertex="1" parent="1">
          <mxGeometry x="210" y="530" width="120" height="60" as="geometry" />
        </mxCell>
        <mxCell id="LpA9F5_BL7Sh21Nrzfpq-44" value="" style="edgeStyle=orthogonalEdgeStyle;rounded=0;orthogonalLoop=1;jettySize=auto;html=1;" edge="1" parent="1" source="LpA9F5_BL7Sh21Nrzfpq-41">
          <mxGeometry relative="1" as="geometry">
            <mxPoint x="610" y="560" as="targetPoint" />
          </mxGeometry>
        </mxCell>
        <mxCell id="LpA9F5_BL7Sh21Nrzfpq-41" value="Enviar Pedido" style="whiteSpace=wrap;html=1;rounded=0;" vertex="1" parent="1">
          <mxGeometry x="410" y="530" width="120" height="60" as="geometry" />
        </mxCell>
        <mxCell id="LpA9F5_BL7Sh21Nrzfpq-51" value="Iniciar" style="ellipse;whiteSpace=wrap;html=1;rounded=0;fillColor=#d5e8d4;strokeColor=#82b366;" vertex="1" parent="1">
          <mxGeometry x="60" y="90" width="40" height="40" as="geometry" />
        </mxCell>
        <mxCell id="LpA9F5_BL7Sh21Nrzfpq-53" value="Finalizar" style="ellipse;whiteSpace=wrap;html=1;rounded=0;fillColor=#f8cecc;strokeColor=#b85450;" vertex="1" parent="1">
          <mxGeometry x="610" y="535" width="50" height="50" as="geometry" />
        </mxCell>
      </root>
    </mxGraphModel>
  </diagram>
</mxfile>
